<svg width="64" height="64" viewBox="0 0 64 64" fill="none" xmlns="http://www.w3.org/2000/svg">
<path d="M30.1123 10.2611C30.027 10.3358 29.915 10.3998 29.867 10.3998C29.819 10.3998 29.659 10.4638 29.515 10.5384C29.371 10.6184 29.0243 10.7944 28.747 10.9384C27.8137 11.4078 27.0617 11.9731 22.3203 15.7598C20.5923 17.1411 18.7203 18.6291 18.1657 19.0664C12.635 23.4451 9.31766 26.1651 7.98433 27.4131C7.84033 27.5464 7.675 27.6798 7.61633 27.7118C7.47766 27.7864 6.24033 29.1091 6.24033 29.1838C6.24033 29.2104 6.18166 29.3064 6.11233 29.3918C6.043 29.4718 5.96833 29.6371 5.947 29.7544C5.92033 29.9304 5.93633 30.0104 6.059 30.2238C6.28833 30.6238 7.55766 32.1918 8.075 32.7198C8.40566 33.0504 8.939 33.7011 10.6297 35.8398C12.9443 38.7571 14.1123 40.0958 17.2483 43.4131C18.0697 44.2771 19.1363 45.4078 19.6217 45.9198C22.8217 49.3064 23.6697 50.1918 25.275 51.7918C26.2617 52.7784 27.1363 53.6691 27.2163 53.7811C27.387 53.9998 27.6857 54.2131 27.9043 54.2611C28.0217 54.2878 28.107 54.2451 28.395 54.0104C28.5817 53.8611 28.8323 53.6691 28.9497 53.5891C29.0883 53.4931 29.211 53.3331 29.339 53.0824C29.435 52.8851 29.6057 52.5758 29.7123 52.3998C30.1017 51.7544 30.2457 51.4131 30.3043 50.9918C30.363 50.5864 30.363 50.5651 30.219 50.2718C30.123 50.0744 29.9897 49.9091 29.8457 49.8078C29.7283 49.7171 29.051 49.0558 28.347 48.3304C27.2323 47.1891 26.2137 46.1811 23.0403 43.1198C22.6723 42.7678 21.7977 41.9251 21.0937 41.2531C20.3897 40.5811 19.5257 39.7491 19.1737 39.4078C16.8963 37.2051 14.9123 35.4451 12.827 33.7758C12.2403 33.3064 11.7017 32.8691 11.627 32.8051L11.4937 32.6878L13.3017 32.7144C15.0243 32.7464 15.1203 32.7518 15.227 32.8531C15.4243 33.0398 15.6643 33.0664 17.0403 33.0664C18.2937 33.0664 22.747 32.9438 23.8137 32.8798C24.3577 32.8478 29.9523 32.9331 32.7737 33.0131C35.995 33.1038 37.499 33.1731 42.8537 33.4664C44.411 33.5518 47.0403 33.6264 51.4937 33.7064C54.891 33.7704 55.755 33.8451 56.1443 34.1118C56.3897 34.2771 56.443 34.2718 56.7043 34.0638C57.1577 33.7011 57.275 33.5571 57.547 33.0398C57.7017 32.7464 57.8457 32.4798 57.8723 32.4531C57.8937 32.4211 57.9683 32.2078 58.0323 31.9731C58.155 31.5198 58.187 30.5598 58.091 30.2931C58.0643 30.2184 57.899 30.0744 57.7283 29.9624C57.2963 29.6904 55.9737 29.0398 55.6803 28.9544C55.5043 28.9011 54.971 28.8851 53.6003 28.8851C52.0003 28.8851 51.6323 28.9011 50.7737 29.0078C49.851 29.1251 49.515 29.1358 45.5737 29.1731C43.259 29.1998 37.9523 29.2211 33.787 29.2318C29.6217 29.2424 25.7817 29.2638 25.2537 29.2798C24.395 29.3064 23.931 29.2851 20.8003 29.0291C18.8803 28.8798 16.395 28.6878 15.2803 28.6131C14.1657 28.5384 13.0883 28.4584 12.8857 28.4371L12.523 28.3998L14.139 27.1731C15.0297 26.4958 16.667 25.2424 17.787 24.3784C18.9017 23.5144 21.3763 21.6104 23.2803 20.1438C29.2857 15.5198 30.0377 14.9171 31.067 13.8611C31.5843 13.3331 31.7603 13.1091 31.9897 12.6931C32.411 11.9304 32.5283 11.6744 32.587 11.3651C32.6297 11.1251 32.6243 11.0451 32.5443 10.8584C32.4163 10.5811 32.3577 10.5331 32.0003 10.4531C31.8403 10.4158 31.6217 10.3624 31.5203 10.3304C31.3497 10.2824 31.147 10.2504 30.507 10.1598C30.299 10.1331 30.2457 10.1438 30.1123 10.2611Z" fill="black"/>
</svg>
