<svg width="64" height="64" viewBox="0 0 64 64" fill="none" xmlns="http://www.w3.org/2000/svg">
<path d="M53.5573 9.22133C53.3973 9.38666 53.104 9.59466 52.7467 9.78666C52.0747 10.1547 51.6267 10.4533 50.672 11.1733C49.3813 12.1493 48.768 12.7147 45.84 15.648C44.256 17.2373 42.4427 19.0133 41.8133 19.6C39.8613 21.4187 38.6667 22.576 36.3733 24.88C33.2053 28.0587 32.016 29.2267 31.952 29.2267C31.8987 29.2267 30.7307 28.2453 28.1867 26.0587C27.4507 25.424 26.224 24.3413 25.7867 23.9413C24.256 22.5387 23.1413 21.4773 20.6133 19.0133C18.704 17.152 17.0027 15.5467 14.4 13.1413C12.7253 11.5947 11.9733 10.944 11.3547 10.512C10.944 10.2187 10.784 10.1867 10.3893 10.2987C10.2133 10.3467 10.1867 10.3733 10.1867 10.5173C10.1867 10.832 10.4587 11.2267 11.3333 12.1867C11.6267 12.5067 12.144 13.0827 12.48 13.4667C14.368 15.6107 15.9627 17.3707 19.9413 21.7067C21.5147 23.4133 24.3893 26.2933 26.32 28.0853C27.2 28.9013 28.3467 29.9733 28.864 30.4693L29.8133 31.3707L28.2773 32.9547C27.4347 33.824 26.4907 34.8 26.1867 35.12C25.8773 35.4453 24.9547 36.4053 24.128 37.2533C22.4107 39.024 21.872 39.6107 20.112 41.6213C17.6053 44.4747 15.7493 46.4427 14.1493 47.952C12.7253 49.296 11.952 50.1013 11.776 50.4267C11.504 50.944 11.3493 51.504 11.3173 52.1173C11.2853 52.832 11.3653 53.264 11.6053 53.6693C11.7067 53.84 11.7867 54 11.7867 54.0267C11.7867 54.0533 11.9307 54.1973 12.1013 54.3413C12.864 54.9707 13.8027 55.0187 14.656 54.4693C15.232 54.1013 18.6293 50.624 21.4987 47.4667C24.0587 44.6507 24.5387 44.1547 28.8693 39.84C31.424 37.3013 33.5253 35.2267 33.5467 35.2267C33.584 35.2267 34.5013 36.208 35.84 37.68C37.7013 39.728 38.576 40.6347 42.0267 44.1333C45.3333 47.4773 46.16 48.3467 47.8933 50.2933C49.5467 52.1493 50.4587 53.0987 51.4933 54.0267C51.6427 54.16 51.968 54.4533 52.224 54.6827C53.1733 55.5467 53.7547 55.952 54.1013 56C54.3947 56.0427 54.72 55.968 54.8693 55.824C55.0027 55.696 55.2587 55.2267 55.216 55.184C55.2053 55.168 55.232 55.0933 55.2853 55.0133C55.424 54.8053 55.4507 54.1333 55.3387 53.648C55.2267 53.1413 55.0347 52.8107 54.5493 52.288C53.9893 51.6853 53.3493 50.9333 52.5387 49.92C51.1147 48.1493 49.2693 46.2347 46.0267 43.1733C43.5733 40.8587 41.1467 38.4427 39.4133 36.5867C38.1653 35.2533 37.792 34.864 36.7627 33.8133C36.256 33.3013 35.84 32.8587 35.8347 32.832C35.8293 32.8107 36.176 32.416 36.5973 31.952C37.024 31.4933 37.584 30.88 37.84 30.5867C38.2667 30.1067 41.184 26.7093 41.5733 26.2347C41.664 26.128 42.3093 25.376 43.0133 24.56C45.3013 21.9147 46.0587 20.9813 47.7067 18.8C48.9867 17.0987 48.8427 17.2907 49.9307 15.92C50.4427 15.2747 51.2213 14.336 51.6587 13.84C53.1733 12.112 53.6107 11.5573 53.9467 10.9173C54.2507 10.3413 54.4 9.88266 54.4 9.52C54.4 9.27466 54.3787 9.2 54.2667 9.09333C54.0533 8.87466 53.8453 8.912 53.5573 9.22133Z" fill="black"/>
</svg>
